<svg width="171" height="31" viewBox="0 0 171 31" fill="none" xmlns="http://www.w3.org/2000/svg">
<path d="M38.0781 3.625L41 11.875L43.9062 3.625H46.9844V15H44.6328V11.8906L44.8672 6.52344L41.7969 15H40.1875L37.125 6.53125L37.3594 11.8906V15H35.0156V3.625H38.0781ZM57.8531 12.6562H53.7437L52.9625 15H50.4703L54.7047 3.625H56.8766L61.1344 15H58.6422L57.8531 12.6562ZM54.3766 10.7578H57.2203L55.7906 6.5L54.3766 10.7578ZM68.8078 10.8359H66.9406V15H64.5969V3.625H68.8234C70.1672 3.625 71.2036 3.92448 71.9328 4.52344C72.662 5.1224 73.0266 5.96875 73.0266 7.0625C73.0266 7.83854 72.8573 8.48698 72.5187 9.00781C72.1854 9.52344 71.6776 9.9349 70.9953 10.2422L73.4562 14.8906V15H70.9406L68.8078 10.8359ZM66.9406 8.9375H68.8312C69.4198 8.9375 69.8755 8.78906 70.1984 8.49219C70.5214 8.1901 70.6828 7.77604 70.6828 7.25C70.6828 6.71354 70.5292 6.29167 70.2219 5.98438C69.9198 5.67708 69.4536 5.52344 68.8234 5.52344H66.9406V8.9375ZM84.0594 10.0703H79.5594V13.1172H84.8406V15H77.2156V3.625H84.825V5.52344H79.5594V8.23438H84.0594V10.0703ZM92.1781 10.4375L90.9594 11.75V15H88.6156V3.625H90.9594V8.78125L91.9906 7.36719L94.8891 3.625H97.7719L93.7328 8.67969L97.8891 15H95.1L92.1781 10.4375Z" fill="#F6C004"/>
<path d="M2.69531 18.1719L7.14844 19.7422V21.9297L0.421875 19.0781V17.2344L7.14844 14.3828V16.5703L2.69531 18.1719ZM12.1187 23.9766H10.4391L14.6266 11.625H16.3062L12.1187 23.9766ZM24.4016 18.1484L19.8625 16.5625V14.3906L26.6672 17.2422V19.0781L19.8625 21.9375V19.7578L24.4016 18.1484Z" fill="#F6C004"/>
<path d="M44.0156 28.5625C43.5938 29.0677 42.9974 29.4609 42.2266 29.7422C41.4557 30.0182 40.6016 30.1562 39.6641 30.1562C38.6797 30.1562 37.8151 29.9427 37.0703 29.5156C36.3307 29.0833 35.7578 28.4583 35.3516 27.6406C34.9505 26.8229 34.7448 25.862 34.7344 24.7578V23.9844C34.7344 22.849 34.9245 21.8672 35.3047 21.0391C35.6901 20.2057 36.2422 19.5703 36.9609 19.1328C37.6849 18.6901 38.5312 18.4688 39.5 18.4688C40.849 18.4688 41.9036 18.7917 42.6641 19.4375C43.4245 20.0781 43.875 21.013 44.0156 22.2422H41.7344C41.6302 21.5911 41.3984 21.1146 41.0391 20.8125C40.6849 20.5104 40.1953 20.3594 39.5703 20.3594C38.7734 20.3594 38.1667 20.6589 37.75 21.2578C37.3333 21.8568 37.1224 22.7474 37.1172 23.9297V24.6562C37.1172 25.849 37.3438 26.75 37.7969 27.3594C38.25 27.9688 38.9141 28.2734 39.7891 28.2734C40.6693 28.2734 41.2969 28.0859 41.6719 27.7109V25.75H39.5391V24.0234H44.0156V28.5625ZM55.1656 25.0703H50.6656V28.1172H55.9469V30H48.3219V18.625H55.9312V20.5234H50.6656V23.2344H55.1656V25.0703ZM63.9328 25.8359H62.0656V30H59.7219V18.625H63.9484C65.2922 18.625 66.3286 18.9245 67.0578 19.5234C67.787 20.1224 68.1516 20.9688 68.1516 22.0625C68.1516 22.8385 67.9823 23.487 67.6437 24.0078C67.3104 24.5234 66.8026 24.9349 66.1203 25.2422L68.5812 29.8906V30H66.0656L63.9328 25.8359ZM62.0656 23.9375H63.9562C64.5448 23.9375 65.0005 23.7891 65.3234 23.4922C65.6464 23.1901 65.8078 22.776 65.8078 22.25C65.8078 21.7135 65.6542 21.2917 65.3469 20.9844C65.0448 20.6771 64.5786 20.5234 63.9484 20.5234H62.0656V23.9375ZM78.2391 27.0156C78.2391 26.5729 78.0828 26.2344 77.7703 26C77.4578 25.7604 76.8953 25.5104 76.0828 25.25C75.2703 24.9844 74.6271 24.724 74.1531 24.4688C72.8615 23.7708 72.2156 22.8307 72.2156 21.6484C72.2156 21.0339 72.3875 20.487 72.7313 20.0078C73.0802 19.5234 73.5776 19.1458 74.2234 18.875C74.8745 18.6042 75.6036 18.4688 76.4109 18.4688C77.2234 18.4688 77.9474 18.6172 78.5828 18.9141C79.2182 19.2057 79.7104 19.6198 80.0594 20.1562C80.4135 20.6927 80.5906 21.3021 80.5906 21.9844H78.2469C78.2469 21.4635 78.0828 21.0599 77.7547 20.7734C77.4266 20.4818 76.9656 20.3359 76.3719 20.3359C75.799 20.3359 75.3536 20.4583 75.0359 20.7031C74.7182 20.9427 74.5594 21.2604 74.5594 21.6562C74.5594 22.026 74.7443 22.3359 75.1141 22.5859C75.4891 22.8359 76.0385 23.0703 76.7625 23.2891C78.0958 23.6901 79.0672 24.1875 79.6766 24.7812C80.2859 25.375 80.5906 26.1146 80.5906 27C80.5906 27.9844 80.2182 28.7578 79.4734 29.3203C78.7286 29.8776 77.726 30.1562 76.4656 30.1562C75.5906 30.1562 74.7938 29.9974 74.075 29.6797C73.3563 29.3568 72.8068 28.9167 72.4266 28.3594C72.0516 27.8021 71.8641 27.1562 71.8641 26.4219H74.2156C74.2156 27.6771 74.9656 28.3047 76.4656 28.3047C77.0229 28.3047 77.4578 28.1927 77.7703 27.9688C78.0828 27.7396 78.2391 27.4219 78.2391 27.0156ZM87.0687 28.1172H92.8031V30H84.1391V28.625L89.7641 20.5234H84.1469V18.625H92.6781V19.9688L87.0687 28.1172ZM103.531 25.0703H99.0312V28.1172H104.312V30H96.6875V18.625H104.297V20.5234H99.0312V23.2344H103.531V25.0703ZM117.338 30H114.994L110.431 22.5156V30H108.088V18.625H110.431L115.002 26.125V18.625H117.338V30ZM121.784 30V18.625H125.284C126.284 18.625 127.178 18.8516 127.964 19.3047C128.756 19.7526 129.373 20.3932 129.816 21.2266C130.258 22.0547 130.48 22.9974 130.48 24.0547V24.5781C130.48 25.6354 130.261 26.5755 129.823 27.3984C129.391 28.2214 128.779 28.8594 127.988 29.3125C127.196 29.7656 126.303 29.9948 125.308 30H121.784ZM124.128 20.5234V28.1172H125.261C126.178 28.1172 126.878 27.8177 127.363 27.2188C127.847 26.6198 128.094 25.763 128.105 24.6484V24.0469C128.105 22.8906 127.865 22.0156 127.386 21.4219C126.907 20.8229 126.206 20.5234 125.284 20.5234H124.128ZM143.934 24.5703C143.934 25.6901 143.736 26.6719 143.341 27.5156C142.945 28.3594 142.377 29.0104 141.637 29.4688C140.903 29.9271 140.059 30.1562 139.106 30.1562C138.164 30.1562 137.322 29.9297 136.583 29.4766C135.843 29.0234 135.27 28.3776 134.864 27.5391C134.458 26.6953 134.252 25.7266 134.247 24.6328V24.0703C134.247 22.9505 134.447 21.9661 134.848 21.1172C135.255 20.263 135.825 19.6094 136.559 19.1562C137.299 18.6979 138.143 18.4688 139.091 18.4688C140.039 18.4688 140.88 18.6979 141.614 19.1562C142.354 19.6094 142.924 20.263 143.325 21.1172C143.731 21.9661 143.934 22.9479 143.934 24.0625V24.5703ZM141.559 24.0547C141.559 22.862 141.346 21.9557 140.919 21.3359C140.492 20.7161 139.882 20.4062 139.091 20.4062C138.304 20.4062 137.697 20.7135 137.27 21.3281C136.843 21.9375 136.627 22.8333 136.622 24.0156V24.5703C136.622 25.7318 136.835 26.6328 137.262 27.2734C137.69 27.9141 138.304 28.2344 139.106 28.2344C139.893 28.2344 140.497 27.9271 140.919 27.3125C141.341 26.6927 141.554 25.7917 141.559 24.6094V24.0547ZM152.248 25.8359H150.381V30H148.037V18.625H152.264C153.608 18.625 154.644 18.9245 155.373 19.5234C156.103 20.1224 156.467 20.9688 156.467 22.0625C156.467 22.8385 156.298 23.487 155.959 24.0078C155.626 24.5234 155.118 24.9349 154.436 25.2422L156.897 29.8906V30H154.381L152.248 25.8359ZM150.381 23.9375H152.272C152.86 23.9375 153.316 23.7891 153.639 23.4922C153.962 23.1901 154.123 22.776 154.123 22.25C154.123 21.7135 153.97 21.2917 153.662 20.9844C153.36 20.6771 152.894 20.5234 152.264 20.5234H150.381V23.9375ZM167.5 25.3516H163V30H160.656V18.625H168.062V20.5234H163V23.4609H167.5V25.3516Z" fill="black"/>
</svg>
